<?xml version="1.0" encoding="UTF-8" standalone="no"?>
<!-- Created with Inkscape (http://www.inkscape.org/) -->

<svg
   xmlns:dc="http://purl.org/dc/elements/1.1/"
   xmlns:cc="http://creativecommons.org/ns#"
   xmlns:rdf="http://www.w3.org/1999/02/22-rdf-syntax-ns#"
   xmlns:svg="http://www.w3.org/2000/svg"
   xmlns="http://www.w3.org/2000/svg"
   xmlns:sodipodi="http://sodipodi.sourceforge.net/DTD/sodipodi-0.dtd"
   xmlns:inkscape="http://www.inkscape.org/namespaces/inkscape"
   width="21.413172mm"
   height="21.440775mm"
   viewBox="0 0 75.873443 75.971249"
   id="svg3464"
   version="1.1"
   inkscape:version="0.91 r13725"
   sodipodi:docname="NPCC_Logo_Only.svg">
  <defs
     id="defs3466" />
  <sodipodi:namedview
     id="base"
     pagecolor="#ffffff"
     bordercolor="#666666"
     borderopacity="1.0"
     inkscape:pageopacity="0.0"
     inkscape:pageshadow="2"
     inkscape:zoom="0.98994949"
     inkscape:cx="226.4473"
     inkscape:cy="-220.92676"
     inkscape:document-units="px"
     inkscape:current-layer="layer1"
     showgrid="false"
     inkscape:window-width="1048"
     inkscape:window-height="856"
     inkscape:window-x="2738"
     inkscape:window-y="187"
     inkscape:window-maximized="0"
     fit-margin-top="0"
     fit-margin-left="0"
     fit-margin-right="0"
     fit-margin-bottom="0" />
  <metadata
     id="metadata3469">
    <rdf:RDF>
      <cc:Work
         rdf:about="">
        <dc:format>image/svg+xml</dc:format>
        <dc:type
           rdf:resource="http://purl.org/dc/dcmitype/StillImage" />
        <dc:title></dc:title>
      </cc:Work>
    </rdf:RDF>
  </metadata>
  <g
     inkscape:label="Layer 1"
     inkscape:groupmode="layer"
     id="layer1"
     transform="translate(-2.2162872,-2.0908613)">
    <g
       id="g3354"
       transform="matrix(1.25,0,0,-1.25,36.344729,50.785863)">
      <path
         d="M 0,0 7.548,-12.716 C 5.118,-13.232 2.584,-13.34 0.034,-12.983 L 0,0 Z m -7.957,17.552 0,-27.768 c -8.615,5.05 -12.895,15.583 -9.689,25.458 3.702,11.405 15.993,17.669 27.396,13.969 11.401,-3.702 17.667,-15.992 13.965,-27.396 -1.228,-3.787 -3.422,-6.991 -6.2,-9.465 l -0.018,25.202 -8.008,0 0.474,-20.955 -10.915,20.956 -7.005,-0.001 z m 41.292,-7.17 0,0.081 -0.01,-0.008 C 32.63,21.287 26.112,31.21 15.944,35.979 c -0.008,0.002 -0.015,0.008 -0.023,0.011 -0.433,0.202 -0.868,0.392 -1.315,0.575 -0.659,0.279 -1.332,0.535 -2.013,0.768 -0.064,0.02 -0.121,0.051 -0.186,0.072 -0.021,0.007 -0.041,0.008 -0.065,0.016 -2.98,0.989 -6.163,1.536 -9.465,1.535 -4.148,10e-4 -8.113,-0.842 -11.715,-2.363 -5.409,-2.289 -9.996,-6.102 -13.239,-10.903 -1.571,-2.326 -2.821,-4.896 -3.699,-7.626 -0.017,-0.057 -0.043,-0.106 -0.063,-0.16 -0.006,-0.017 -0.008,-0.038 -0.014,-0.055 -0.232,-0.742 -0.433,-1.497 -0.609,-2.261 -3.665,-15.255 4.945,-30.999 20.124,-35.929 2.624,-0.852 5.279,-1.303 7.909,-1.425 l -0.021,-0.016 31.846,-0.039 -0.061,32.203 z"
         style="fill:#373535;fill-opacity:1;fill-rule:nonzero;stroke:none"
         id="path3356"
         inkscape:connector-curvature="0" />
    </g>
  </g>
</svg>
