<?xml version="1.0" encoding="UTF-8" standalone="no"?>
<svg
   xmlns:dc="http://purl.org/dc/elements/1.1/"
   xmlns:cc="http://creativecommons.org/ns#"
   xmlns:rdf="http://www.w3.org/1999/02/22-rdf-syntax-ns#"
   xmlns:svg="http://www.w3.org/2000/svg"
   xmlns="http://www.w3.org/2000/svg"
   viewBox="0 0 353.75 126.25"
   height="126.25"
   width="353.75"
   xml:space="preserve"
   version="1.1"
   id="svg3336"><metadata
     id="metadata3342"><rdf:RDF><cc:Work
         rdf:about=""><dc:format>image/svg+xml</dc:format><dc:type
           rdf:resource="http://purl.org/dc/dcmitype/StillImage" /><dc:title></dc:title></cc:Work></rdf:RDF></metadata><defs
     id="defs3340"><clipPath
       id="clipPath3350"
       clipPathUnits="userSpaceOnUse"><path
         id="path3352"
         d="M 0,101 283,101 283,0 0,0 0,101 Z" /></clipPath></defs><g
     transform="matrix(1.25,0,0,-1.25,0,126.25)"
     id="g3344"><g
       id="g3346"><g
         clip-path="url(#clipPath3350)"
         id="g3348"><g
           transform="translate(47.708,41.9883)"
           id="g3354"><path
             id="path3356"
             style="fill:#8bc540;fill-opacity:1;fill-rule:nonzero;stroke:none"
             d="M 0,0 7.548,-12.716 C 5.118,-13.232 2.584,-13.34 0.034,-12.983 L 0,0 Z m -7.957,17.552 0,-27.768 c -8.615,5.05 -12.895,15.583 -9.689,25.458 3.702,11.405 15.993,17.669 27.396,13.969 11.401,-3.702 17.667,-15.992 13.965,-27.396 -1.228,-3.787 -3.422,-6.991 -6.2,-9.465 l -0.018,25.202 -8.008,0 0.474,-20.955 -10.915,20.956 -7.005,-0.001 z m 41.292,-7.17 0,0.081 -0.01,-0.008 C 32.63,21.287 26.112,31.21 15.944,35.979 c -0.008,0.002 -0.015,0.008 -0.023,0.011 -0.433,0.202 -0.868,0.392 -1.315,0.575 -0.659,0.279 -1.332,0.535 -2.013,0.768 -0.064,0.02 -0.121,0.051 -0.186,0.072 -0.021,0.007 -0.041,0.008 -0.065,0.016 -2.98,0.989 -6.163,1.536 -9.465,1.535 -4.148,10e-4 -8.113,-0.842 -11.715,-2.363 -5.409,-2.289 -9.996,-6.102 -13.239,-10.903 -1.571,-2.326 -2.821,-4.896 -3.699,-7.626 -0.017,-0.057 -0.043,-0.106 -0.063,-0.16 -0.006,-0.017 -0.008,-0.038 -0.014,-0.055 -0.232,-0.742 -0.433,-1.497 -0.609,-2.261 -3.665,-15.255 4.945,-30.999 20.124,-35.929 2.624,-0.852 5.279,-1.303 7.909,-1.425 l -0.021,-0.016 31.846,-0.039 -0.061,32.203 z" /></g><g
           transform="translate(102.5176,37.0215)"
           id="g3358"><path
             id="path3360"
             style="fill:#8bc540;fill-opacity:1;fill-rule:nonzero;stroke:none"
             d="m 0,0 -8.539,13.407 0,-13.407 -6.553,0 0,26.664 5.731,0 8.538,-13.408 0,13.408 6.553,0 L 5.73,0 0,0 Z" /></g><g
           transform="translate(123.1162,50.7656)"
           id="g3362"><path
             id="path3364"
             style="fill:#8bc540;fill-opacity:1;fill-rule:nonzero;stroke:none"
             d="M 0,0 C -0.374,0.861 -1.198,1.572 -2.658,1.572 -4.119,1.572 -4.943,0.861 -5.317,0 -5.578,-0.525 -5.653,-1.086 -5.653,-1.573 l 5.99,0 C 0.337,-1.086 0.263,-0.525 0,0 m -5.653,-5.654 c 0,-1.65 1.273,-3.146 3.557,-3.146 2.135,0 3.071,0.597 4.157,1.685 l 3.669,-3.671 c -2.059,-2.06 -4.082,-3.184 -7.826,-3.184 -4.457,0 -9.587,1.611 -9.587,10.299 0,6.591 3.744,10.3 9.025,10.3 5.842,0 9.063,-4.272 9.063,-9.552 l 0,-2.731 -12.058,0 z" /></g><g
           transform="translate(152.7788,37.0215)"
           id="g3366"><path
             id="path3368"
             style="fill:#8bc540;fill-opacity:1;fill-rule:nonzero;stroke:none"
             d="M 0,0 -4.908,0 -8.54,11.048 -12.172,0 l -4.905,0 -6.068,20.148 6.478,0 2.51,-10.449 3.483,10.449 4.268,0 3.482,-10.449 2.511,10.449 6.478,0 L 0,0 Z" /></g><g
           transform="translate(170.8672,57.8057)"
           id="g3370"><path
             id="path3372"
             style="fill:#8bc540;fill-opacity:1;fill-rule:nonzero;stroke:none"
             d="m 0,0 -3.707,0 0,-5.394 3.707,0 c 1.798,0 2.848,1.313 2.848,2.698 C 2.848,-1.31 1.798,0 0,0 m 0.302,-11.272 -4.009,0 0,-9.512 -6.553,0 0,26.664 10.562,0 c 5.916,0 9.098,-4.193 9.098,-8.576 0,-4.381 -3.182,-8.576 -9.098,-8.576" /></g><g
           transform="translate(192.0283,51.29)"
           id="g3374"><path
             id="path3376"
             style="fill:#8bc540;fill-opacity:1;fill-rule:nonzero;stroke:none"
             d="m 0,0 c -0.376,0.374 -0.899,0.561 -1.647,0.561 -0.75,0 -1.275,-0.187 -1.649,-0.561 -0.786,-0.787 -0.897,-2.21 -0.897,-4.195 0,-1.984 0.111,-3.407 0.897,-4.194 0.374,-0.374 0.899,-0.563 1.649,-0.563 0.748,0 1.271,0.189 1.647,0.563 0.787,0.787 0.899,2.21 0.899,4.194 C 0.899,-2.21 0.787,-0.787 0,0 m 4.831,-11.91 c -1.198,-1.274 -3.221,-2.584 -6.478,-2.584 -3.259,0 -5.282,1.31 -6.479,2.584 -1.687,1.837 -2.211,3.746 -2.211,7.715 0,3.932 0.524,5.88 2.211,7.715 1.197,1.274 3.22,2.584 6.479,2.584 3.257,0 5.28,-1.31 6.478,-2.584 1.686,-1.835 2.209,-3.783 2.209,-7.715 0,-3.969 -0.523,-5.878 -2.209,-7.715" /></g><path
           id="path3378"
           style="fill:#8bc540;fill-opacity:1;fill-rule:nonzero;stroke:none"
           d="m 202.066,56.383 6.142,0 0,-19.361 -6.142,0 0,19.361 z" /><g
           transform="translate(223,37.0215)"
           id="g3380"><path
             id="path3382"
             style="fill:#8bc540;fill-opacity:1;fill-rule:nonzero;stroke:none"
             d="m 0,0 0,12.059 c 0,2.322 -1.648,2.77 -2.47,2.77 -0.824,0 -2.471,-0.448 -2.471,-2.77 l 0,-12.059 -6.144,0 0,20.148 5.993,0 0,-1.648 c 1.236,1.234 3.07,1.873 4.681,1.873 1.909,0 3.444,-0.639 4.531,-1.723 1.723,-1.722 2.024,-3.632 2.024,-5.767 L 6.144,0 0,0 Z" /></g><g
           transform="translate(239.3682,37.0215)"
           id="g3384"><path
             id="path3386"
             style="fill:#8bc540;fill-opacity:1;fill-rule:nonzero;stroke:none"
             d="m 0,0 c -4.459,0 -6.256,3.184 -6.256,5.956 l 0,8.687 -1.834,0 0,4.718 1.834,0 0,5.768 6.143,0 0,-5.768 3.183,0 0,-4.718 -3.183,0 0,-8.24 c 0,-0.785 0.412,-1.236 1.235,-1.236 l 1.948,0 L 3.07,0 0,0 Z" /></g><g
           transform="translate(256.1084,50.7656)"
           id="g3388"><path
             id="path3390"
             style="fill:#8bc540;fill-opacity:1;fill-rule:nonzero;stroke:none"
             d="M 0,0 C -0.374,0.861 -1.198,1.572 -2.657,1.572 -4.118,1.572 -4.944,0.861 -5.318,0 -5.579,-0.525 -5.653,-1.086 -5.653,-1.573 l 5.99,0 C 0.337,-1.086 0.261,-0.525 0,0 m -5.653,-5.654 c 0,-1.65 1.271,-3.146 3.556,-3.146 2.135,0 3.073,0.597 4.157,1.685 l 3.669,-3.671 c -2.058,-2.06 -4.08,-3.184 -7.826,-3.184 -4.456,0 -9.587,1.611 -9.587,10.299 0,6.591 3.745,10.3 9.027,10.3 5.84,0 9.063,-4.272 9.063,-9.552 l 0,-2.731 -12.059,0 z" /></g><g
           transform="translate(91.7373,20.0557)"
           id="g3392"><path
             id="path3394"
             style="fill:#8bc540;fill-opacity:1;fill-rule:nonzero;stroke:none"
             d="m 0,0 c -1.556,0 -2.737,0.524 -3.711,1.497 -1.406,1.408 -1.349,3.28 -1.349,5.286 0,2.005 -0.057,3.881 1.349,5.284 0.974,0.974 2.155,1.499 3.711,1.499 1.761,0 2.79,-0.582 3.69,-1.479 L 1.516,9.912 c -0.43,0.432 -0.767,0.73 -1.516,0.73 -0.601,0 -1.032,-0.244 -1.275,-0.56 C -1.576,9.688 -1.78,9.217 -1.78,6.783 -1.78,4.345 -1.576,3.88 -1.275,3.485 -1.032,3.168 -0.601,2.922 0,2.922 c 0.749,0 1.086,0.3 1.516,0.73 L 3.69,1.481 C 2.79,0.579 1.761,0 0,0" /></g><g
           transform="translate(102.4297,30.1182)"
           id="g3396"><path
             id="path3398"
             style="fill:#8bc540;fill-opacity:1;fill-rule:nonzero;stroke:none"
             d="M 0,0 C -0.245,0.317 -0.713,0.579 -1.312,0.579 -1.911,0.579 -2.38,0.317 -2.624,0 c -0.3,-0.395 -0.487,-0.846 -0.487,-3.279 0,-2.439 0.187,-2.867 0.487,-3.259 0.244,-0.32 0.713,-0.603 1.312,-0.603 0.599,0 1.067,0.283 1.312,0.603 0.3,0.392 0.487,0.82 0.487,3.259 C 0.487,-0.846 0.3,-0.395 0,0 m 2.418,-8.565 c -0.975,-0.973 -2.1,-1.498 -3.73,-1.498 -1.63,0 -2.754,0.525 -3.729,1.498 -1.406,1.408 -1.349,3.28 -1.349,5.286 0,2.005 -0.057,3.881 1.349,5.284 0.975,0.974 2.099,1.499 3.729,1.499 1.63,0 2.755,-0.525 3.73,-1.499 1.404,-1.403 1.349,-3.279 1.349,-5.284 0,-2.006 0.055,-3.878 -1.349,-5.286" /></g><g
           transform="translate(117.4858,20.167)"
           id="g3400"><path
             id="path3402"
             style="fill:#8bc540;fill-opacity:1;fill-rule:nonzero;stroke:none"
             d="m 0,0 0,6.389 -1.892,-3.296 -2.1,0 -1.89,3.296 0,-6.389 -3.28,0 0,13.342 3.223,0 2.996,-5.885 3,5.885 3.222,0 L 3.279,0 0,0 Z" /></g><g
           transform="translate(132.4858,20.167)"
           id="g3404"><path
             id="path3406"
             style="fill:#8bc540;fill-opacity:1;fill-rule:nonzero;stroke:none"
             d="m 0,0 0,6.389 -1.893,-3.296 -2.099,0 -1.891,3.296 0,-6.389 -3.28,0 0,13.342 3.224,0 2.996,-5.885 2.999,5.885 3.222,0 L 3.278,0 0,0 Z" /></g><g
           transform="translate(143.1382,20.0557)"
           id="g3408"><path
             id="path3410"
             style="fill:#8bc540;fill-opacity:1;fill-rule:nonzero;stroke:none"
             d="m 0,0 c -2.773,0 -5.041,1.873 -5.041,4.798 l 0,8.655 3.279,0 0,-8.583 c 0,-1.235 0.676,-1.948 1.762,-1.948 1.088,0 1.799,0.713 1.799,1.948 l 0,8.583 3.279,0 0,-8.655 C 5.078,1.873 2.772,0 0,0" /></g><g
           transform="translate(158.1021,20.167)"
           id="g3412"><path
             id="path3414"
             style="fill:#8bc540;fill-opacity:1;fill-rule:nonzero;stroke:none"
             d="m 0,0 -4.271,6.709 0,-6.709 -3.281,0 0,13.342 2.869,0 4.27,-6.708 0,6.708 3.28,0 L 2.867,0 0,0 Z" /></g><path
           id="path3416"
           style="fill:#8bc540;fill-opacity:1;fill-rule:nonzero;stroke:none"
           d="m 163.529,33.509 3.279,0 0,-13.342 -3.279,0 0,13.342 z" /><g
           transform="translate(175.1426,30.5859)"
           id="g3418"><path
             id="path3420"
             style="fill:#8bc540;fill-opacity:1;fill-rule:nonzero;stroke:none"
             d="m 0,0 0,-10.419 -3.28,0 0,10.419 -3.279,0 0,2.923 9.839,0 L 3.28,0 0,0 Z" /></g><g
           transform="translate(186.1543,25.6016)"
           id="g3422"><path
             id="path3424"
             style="fill:#8bc540;fill-opacity:1;fill-rule:nonzero;stroke:none"
             d="m 0,0 0,-5.435 -3.278,0 0,5.435 -4.031,7.907 3.58,0 2.099,-4.796 2.079,4.796 3.579,0 L 0,0 Z" /></g><g
           transform="translate(200.0488,20.0557)"
           id="g3426"><path
             id="path3428"
             style="fill:#8bc540;fill-opacity:1;fill-rule:nonzero;stroke:none"
             d="m 0,0 c -1.556,0 -2.737,0.524 -3.711,1.497 -1.407,1.408 -1.35,3.28 -1.35,5.286 0,2.005 -0.057,3.881 1.35,5.284 0.974,0.974 2.155,1.499 3.711,1.499 1.761,0 2.79,-0.582 3.691,-1.479 L 1.515,9.912 c -0.429,0.432 -0.768,0.73 -1.515,0.73 -0.601,0 -1.031,-0.244 -1.274,-0.56 C -1.576,9.688 -1.78,9.217 -1.78,6.783 -1.78,4.345 -1.576,3.88 -1.274,3.485 -1.031,3.168 -0.601,2.922 0,2.922 c 0.747,0 1.086,0.3 1.515,0.73 L 3.691,1.481 C 2.79,0.579 1.761,0 0,0" /></g><g
           transform="translate(212.2949,20.167)"
           id="g3430"><path
             id="path3432"
             style="fill:#8bc540;fill-opacity:1;fill-rule:nonzero;stroke:none"
             d="m 0,0 0,5.286 -3.484,0 0,-5.286 -3.281,0 0,13.342 3.281,0 0,-5.132 3.484,0 0,5.132 3.278,0 L 3.278,0 0,0 Z" /></g><g
           transform="translate(222.9492,20.0557)"
           id="g3434"><path
             id="path3436"
             style="fill:#8bc540;fill-opacity:1;fill-rule:nonzero;stroke:none"
             d="m 0,0 c -2.773,0 -5.041,1.873 -5.041,4.798 l 0,8.655 3.278,0 0,-8.583 c 0,-1.235 0.676,-1.948 1.763,-1.948 1.087,0 1.8,0.713 1.8,1.948 l 0,8.583 3.276,0 0,-8.655 C 5.076,1.873 2.773,0 0,0" /></g><g
           transform="translate(235.4961,30.5684)"
           id="g3438"><path
             id="path3440"
             style="fill:#8bc540;fill-opacity:1;fill-rule:nonzero;stroke:none"
             d="m 0,0 -1.854,0 0,-2.699 1.854,0 c 0.899,0 1.424,0.657 1.424,1.348 C 1.424,-0.657 0.899,0 0,0 m 1.61,-10.401 -2.36,4.965 -1.104,0 0,-4.965 -3.281,0 0,13.341 5.286,0 c 2.959,0 4.551,-2.098 4.551,-4.291 0,-1.816 -1.122,-2.961 -2.172,-3.483 l 2.887,-5.567 -3.807,0 z" /></g><g
           transform="translate(247.0684,20.0557)"
           id="g3442"><path
             id="path3444"
             style="fill:#8bc540;fill-opacity:1;fill-rule:nonzero;stroke:none"
             d="m 0,0 c -1.556,0 -2.735,0.524 -3.711,1.497 -1.405,1.408 -1.35,3.28 -1.35,5.286 0,2.005 -0.055,3.881 1.35,5.284 0.976,0.974 2.155,1.499 3.711,1.499 1.761,0 2.791,-0.582 3.689,-1.479 L 1.517,9.912 c -0.431,0.432 -0.768,0.73 -1.517,0.73 -0.601,0 -1.031,-0.244 -1.275,-0.56 C -1.576,9.688 -1.782,9.217 -1.782,6.783 -1.782,4.345 -1.576,3.88 -1.275,3.485 -1.031,3.168 -0.601,2.922 0,2.922 c 0.749,0 1.086,0.3 1.517,0.73 L 3.689,1.481 C 2.791,0.579 1.761,0 0,0" /></g><g
           transform="translate(259.3164,20.167)"
           id="g3446"><path
             id="path3448"
             style="fill:#8bc540;fill-opacity:1;fill-rule:nonzero;stroke:none"
             d="m 0,0 0,5.286 -3.484,0 0,-5.286 -3.281,0 0,13.342 3.281,0 0,-5.132 3.484,0 0,5.132 3.278,0 L 3.278,0 0,0 Z" /></g><g
           transform="translate(204.9775,58.4336)"
           id="g3450"><path
             id="path3452"
             style="fill:#8bc540;fill-opacity:1;fill-rule:nonzero;stroke:none"
             d="m 0,0 0.004,0.002 c -0.267,0.014 -0.535,0.059 -0.802,0.146 -1.539,0.498 -2.412,2.096 -2.04,3.642 0.017,0.078 0.038,0.154 0.061,0.229 0,10e-4 0.002,0.004 0.002,0.004 0,0.008 0.004,0.012 0.005,0.018 0.09,0.276 0.217,0.538 0.375,0.774 0.329,0.486 0.796,0.873 1.342,1.105 0.367,0.153 0.769,0.238 1.189,0.238 0.335,0 0.659,-0.054 0.958,-0.153 C 1.098,6.004 1.1,6.004 1.104,6.003 1.108,6.001 1.115,5.998 1.123,5.995 1.19,5.972 1.258,5.944 1.325,5.917 1.372,5.899 1.415,5.879 1.458,5.859 L 1.46,5.857 C 2.49,5.373 3.152,4.368 3.221,3.27 l 0.002,0 L 3.23,-0.003 0,0 Z" /></g></g></g></g></svg>